<mxfile host="app.diagrams.net" agent="Mozilla/5.0 (Windows NT 10.0; Win64; x64) AppleWebKit/537.36 (KHTML, like Gecko) Chrome/137.0.0.0 Safari/537.36" version="27.1.4">
  <diagram name="Page-1" id="0dNNpC5y7-ogTLh8RcKK">
    <mxGraphModel dx="786" dy="459" grid="1" gridSize="10" guides="1" tooltips="1" connect="1" arrows="1" fold="1" page="1" pageScale="1" pageWidth="827" pageHeight="1169" math="0" shadow="0">
      <root>
        <mxCell id="0" />
        <mxCell id="1" parent="0" />
        <mxCell id="7A2n94U1ksBXhrqz3h2F-1" value="Client" style="shape=umlLifeline;perimeter=lifelinePerimeter;whiteSpace=wrap;container=1;dropTarget=0;collapsible=0;recursiveResize=0;outlineConnect=0;portConstraint=eastwest;newEdgeStyle={&quot;edgeStyle&quot;:&quot;elbowEdgeStyle&quot;,&quot;elbow&quot;:&quot;vertical&quot;,&quot;curved&quot;:0,&quot;rounded&quot;:0};participant=umlActor;verticalAlign=bottom;labelPosition=center;verticalLabelPosition=top;align=center;size=65;" vertex="1" parent="1">
          <mxGeometry x="20" y="20" width="35" height="625" as="geometry" />
        </mxCell>
        <mxCell id="7A2n94U1ksBXhrqz3h2F-2" value="Système" style="shape=umlLifeline;perimeter=lifelinePerimeter;whiteSpace=wrap;container=1;dropTarget=0;collapsible=0;recursiveResize=0;outlineConnect=0;portConstraint=eastwest;newEdgeStyle={&quot;edgeStyle&quot;:&quot;elbowEdgeStyle&quot;,&quot;elbow&quot;:&quot;vertical&quot;,&quot;curved&quot;:0,&quot;rounded&quot;:0};size=65;" vertex="1" parent="1">
          <mxGeometry x="245" y="20" width="150" height="625" as="geometry" />
        </mxCell>
        <mxCell id="7A2n94U1ksBXhrqz3h2F-3" value="Vol" style="shape=umlLifeline;perimeter=lifelinePerimeter;whiteSpace=wrap;container=1;dropTarget=0;collapsible=0;recursiveResize=0;outlineConnect=0;portConstraint=eastwest;newEdgeStyle={&quot;edgeStyle&quot;:&quot;elbowEdgeStyle&quot;,&quot;elbow&quot;:&quot;vertical&quot;,&quot;curved&quot;:0,&quot;rounded&quot;:0};size=65;" vertex="1" parent="1">
          <mxGeometry x="610" y="20" width="150" height="625" as="geometry" />
        </mxCell>
        <mxCell id="7A2n94U1ksBXhrqz3h2F-4" value="alt" style="shape=umlFrame;dashed=1;pointerEvents=0;dropTarget=0;strokeColor=#B3B3B3;height=20;width=30" vertex="1" parent="1">
          <mxGeometry x="84" y="333" width="247" height="217" as="geometry" />
        </mxCell>
        <mxCell id="7A2n94U1ksBXhrqz3h2F-5" value="[Places disponibles&#xa;suffisantes]" style="text;strokeColor=none;fillColor=none;align=center;verticalAlign=middle;whiteSpace=wrap;" vertex="1" parent="7A2n94U1ksBXhrqz3h2F-4">
          <mxGeometry x="30" width="217" height="20" as="geometry" />
        </mxCell>
        <mxCell id="7A2n94U1ksBXhrqz3h2F-6" value="[Places insuffisantes]" style="shape=line;dashed=1;whiteSpace=wrap;verticalAlign=top;labelPosition=center;verticalLabelPosition=middle;align=center;strokeColor=#B3B3B3;" vertex="1" parent="7A2n94U1ksBXhrqz3h2F-4">
          <mxGeometry y="124" width="247" height="22" as="geometry" />
        </mxCell>
        <mxCell id="7A2n94U1ksBXhrqz3h2F-7" value="sélectionnerVol()" style="verticalAlign=bottom;edgeStyle=elbowEdgeStyle;elbow=vertical;curved=0;rounded=0;endArrow=block;" edge="1" parent="1" source="7A2n94U1ksBXhrqz3h2F-1" target="7A2n94U1ksBXhrqz3h2F-2">
          <mxGeometry relative="1" as="geometry">
            <Array as="points">
              <mxPoint x="216" y="127" />
            </Array>
          </mxGeometry>
        </mxCell>
        <mxCell id="7A2n94U1ksBXhrqz3h2F-8" value="verifierDisponibilite(nbPlaces)" style="verticalAlign=bottom;edgeStyle=elbowEdgeStyle;elbow=vertical;curved=0;rounded=0;endArrow=block;" edge="1" parent="1" source="7A2n94U1ksBXhrqz3h2F-2" target="7A2n94U1ksBXhrqz3h2F-3">
          <mxGeometry relative="1" as="geometry">
            <Array as="points">
              <mxPoint x="511" y="179" />
            </Array>
          </mxGeometry>
        </mxCell>
        <mxCell id="7A2n94U1ksBXhrqz3h2F-9" value="getPlacesDisponibles()" style="curved=1;endArrow=block;rounded=0;" edge="1" parent="1" source="7A2n94U1ksBXhrqz3h2F-3" target="7A2n94U1ksBXhrqz3h2F-3">
          <mxGeometry relative="1" as="geometry">
            <Array as="points">
              <mxPoint x="736" y="231" />
              <mxPoint x="736" y="261" />
            </Array>
          </mxGeometry>
        </mxCell>
        <mxCell id="7A2n94U1ksBXhrqz3h2F-10" value="resultatDisponibilite(nbPlacesDisponibles)" style="verticalAlign=bottom;edgeStyle=elbowEdgeStyle;elbow=vertical;curved=0;rounded=0;dashed=1;dashPattern=2 3;endArrow=block;" edge="1" parent="1" source="7A2n94U1ksBXhrqz3h2F-3" target="7A2n94U1ksBXhrqz3h2F-2">
          <mxGeometry relative="1" as="geometry">
            <Array as="points">
              <mxPoint x="514" y="313" />
            </Array>
          </mxGeometry>
        </mxCell>
        <mxCell id="7A2n94U1ksBXhrqz3h2F-11" value="afficherConfirmation()" style="verticalAlign=bottom;edgeStyle=elbowEdgeStyle;elbow=vertical;curved=0;rounded=0;dashed=1;dashPattern=2 3;endArrow=block;" edge="1" parent="1" source="7A2n94U1ksBXhrqz3h2F-2" target="7A2n94U1ksBXhrqz3h2F-1">
          <mxGeometry relative="1" as="geometry">
            <Array as="points">
              <mxPoint x="219" y="432" />
            </Array>
          </mxGeometry>
        </mxCell>
        <mxCell id="7A2n94U1ksBXhrqz3h2F-12" value="afficherErreur()" style="verticalAlign=bottom;edgeStyle=elbowEdgeStyle;elbow=vertical;curved=0;rounded=0;dashed=1;dashPattern=2 3;endArrow=block;" edge="1" parent="1" source="7A2n94U1ksBXhrqz3h2F-2" target="7A2n94U1ksBXhrqz3h2F-1">
          <mxGeometry relative="1" as="geometry">
            <Array as="points">
              <mxPoint x="219" y="530" />
            </Array>
          </mxGeometry>
        </mxCell>
      </root>
    </mxGraphModel>
  </diagram>
</mxfile>
